<svg xmlns="http://www.w3.org/2000/svg" xmlns:xlink="http://www.w3.org/1999/xlink" xmlns:lucid="lucid" width="1920" height="668.12"><g transform="translate(-4.263256414560601e-14 -44)" lucid:page-tab-id="0_0"><path d="M20 101.5h220v220H20z" stroke="#000" stroke-width="3" fill-opacity="0"/><use xlink:href="#a" transform="matrix(1,0,0,1,25.000000000000043,106.5) translate(69.425 14.4)"/><use xlink:href="#b" transform="matrix(1,0,0,1,25.000000000000043,106.5) translate(130.575 14.4)"/><use xlink:href="#c" transform="matrix(1,0,0,1,25.000000000000043,106.5) translate(105 36)"/><use xlink:href="#c" transform="matrix(1,0,0,1,25.000000000000043,106.5) translate(105 57.6)"/><use xlink:href="#c" transform="matrix(1,0,0,1,25.000000000000043,106.5) translate(105 79.20000000000002)"/><use xlink:href="#c" transform="matrix(1,0,0,1,25.000000000000043,106.5) translate(105 100.80000000000001)"/><use xlink:href="#c" transform="matrix(1,0,0,1,25.000000000000043,106.5) translate(105 122.4)"/><use xlink:href="#c" transform="matrix(1,0,0,1,25.000000000000043,106.5) translate(105 144)"/><use xlink:href="#c" transform="matrix(1,0,0,1,25.000000000000043,106.5) translate(105 165.6)"/><use xlink:href="#c" transform="matrix(1,0,0,1,25.000000000000043,106.5) translate(105 187.2)"/><use xlink:href="#d" transform="matrix(1,0,0,1,25.000000000000043,106.5) translate(43 208.79999999999998)"/><use xlink:href="#e" transform="matrix(1,0,0,1,25.000000000000043,106.5) translate(145 208.79999999999998)"/><path d="M40 130.7h80v155.76H40z" stroke="#000" stroke-width="3" fill-opacity="0"/><path d="M100 169.64c0 10.75-8.95 19.47-20 19.47s-20-8.7-20-19.46c0-10.75 8.95-19.47 20-19.47s20 8.72 20 19.47zM100 208.58c0 10.75-8.95 19.47-20 19.47s-20-8.72-20-19.47c0-10.75 8.95-19.47 20-19.47s20 8.73 20 19.48z" stroke="#000" stroke-width="3" fill-opacity="0"/><path d="M100 247.52c0 10.75-8.95 19.47-20 19.47s-20-8.73-20-19.48 8.95-19.47 20-19.47 20 8.72 20 19.47z" stroke="#000" stroke-width="3" fill="#54dc00"/><path d="M140 131.2h80v155.74h-80z" stroke="#000" stroke-width="3" fill-opacity="0"/><path d="M200 170.13c0 10.75-8.95 19.47-20 19.47s-20-8.72-20-19.47c0-10.76 8.95-19.47 20-19.47s20 8.7 20 19.47z" stroke="#000" stroke-width="3" fill="#c92d39"/><path d="M200 209.06c0 10.76-8.95 19.47-20 19.47s-20-8.7-20-19.47c0-10.75 8.95-19.46 20-19.46s20 8.7 20 19.46zM200 248c0 10.76-8.95 19.47-20 19.47s-20-8.7-20-19.47c0-10.75 8.95-19.47 20-19.47s20 8.72 20 19.47zM400 101.5h220v220H400z" stroke="#000" stroke-width="3" fill-opacity="0"/><use xlink:href="#a" transform="matrix(1,0,0,1,405,106.5) translate(69.425 14.4)"/><use xlink:href="#f" transform="matrix(1,0,0,1,405,106.5) translate(130.575 14.4)"/><use xlink:href="#c" transform="matrix(1,0,0,1,405,106.5) translate(105 36)"/><use xlink:href="#c" transform="matrix(1,0,0,1,405,106.5) translate(105 57.6)"/><use xlink:href="#c" transform="matrix(1,0,0,1,405,106.5) translate(105 79.20000000000002)"/><use xlink:href="#c" transform="matrix(1,0,0,1,405,106.5) translate(105 100.80000000000001)"/><use xlink:href="#c" transform="matrix(1,0,0,1,405,106.5) translate(105 122.4)"/><use xlink:href="#c" transform="matrix(1,0,0,1,405,106.5) translate(105 144)"/><use xlink:href="#c" transform="matrix(1,0,0,1,405,106.5) translate(105 165.6)"/><use xlink:href="#c" transform="matrix(1,0,0,1,405,106.5) translate(105 187.2)"/><use xlink:href="#d" transform="matrix(1,0,0,1,405,106.5) translate(43 208.79999999999998)"/><use xlink:href="#e" transform="matrix(1,0,0,1,405,106.5) translate(145 208.79999999999998)"/><path d="M420 130.7h80v155.76h-80z" stroke="#000" stroke-width="3" fill-opacity="0"/><path d="M480 169.64c0 10.75-8.95 19.47-20 19.47s-20-8.7-20-19.46c0-10.75 8.95-19.47 20-19.47s20 8.72 20 19.47zM480 208.58c0 10.75-8.95 19.47-20 19.47s-20-8.72-20-19.47c0-10.75 8.95-19.47 20-19.47s20 8.73 20 19.48z" stroke="#000" stroke-width="3" fill-opacity="0"/><path d="M480 247.52c0 10.75-8.95 19.47-20 19.47s-20-8.73-20-19.48 8.95-19.47 20-19.47 20 8.72 20 19.47z" stroke="#000" stroke-width="3" fill="#54dc00"/><path d="M520 131.2h80v155.74h-80z" stroke="#000" stroke-width="3" fill-opacity="0"/><path d="M580 170.13c0 10.75-8.95 19.47-20 19.47s-20-8.72-20-19.47c0-10.76 8.95-19.47 20-19.47s20 8.7 20 19.47z" stroke="#000" stroke-width="3" fill="#c92d39"/><path d="M580 209.06c0 10.76-8.95 19.47-20 19.47s-20-8.7-20-19.47c0-10.75 8.95-19.46 20-19.46s20 8.7 20 19.46zM580 248c0 10.76-8.95 19.47-20 19.47s-20-8.7-20-19.47c0-10.75 8.95-19.47 20-19.47s20 8.72 20 19.47zM400 401.5h220v220H400z" stroke="#000" stroke-width="3" fill-opacity="0"/><use xlink:href="#a" transform="matrix(1,0,0,1,405,406.5) translate(69.425 14.4)"/><use xlink:href="#g" transform="matrix(1,0,0,1,405,406.5) translate(130.575 14.4)"/><use xlink:href="#c" transform="matrix(1,0,0,1,405,406.5) translate(105 36)"/><use xlink:href="#c" transform="matrix(1,0,0,1,405,406.5) translate(105 57.6)"/><use xlink:href="#c" transform="matrix(1,0,0,1,405,406.5) translate(105 79.20000000000002)"/><use xlink:href="#c" transform="matrix(1,0,0,1,405,406.5) translate(105 100.80000000000001)"/><use xlink:href="#c" transform="matrix(1,0,0,1,405,406.5) translate(105 122.4)"/><use xlink:href="#c" transform="matrix(1,0,0,1,405,406.5) translate(105 144)"/><use xlink:href="#c" transform="matrix(1,0,0,1,405,406.5) translate(105 165.6)"/><use xlink:href="#c" transform="matrix(1,0,0,1,405,406.5) translate(105 187.2)"/><use xlink:href="#d" transform="matrix(1,0,0,1,405,406.5) translate(43 208.79999999999998)"/><use xlink:href="#e" transform="matrix(1,0,0,1,405,406.5) translate(145 208.79999999999998)"/><path d="M420 430.7h80v155.76h-80z" stroke="#000" stroke-width="3" fill-opacity="0"/><path d="M480 469.64c0 10.75-8.95 19.47-20 19.47s-20-8.7-20-19.46c0-10.75 8.95-19.47 20-19.47s20 8.72 20 19.47z" stroke="#000" stroke-width="3" fill-opacity="0"/><path d="M480 508.58c0 10.75-8.95 19.47-20 19.47s-20-8.72-20-19.47c0-10.75 8.95-19.47 20-19.47s20 8.73 20 19.48z" stroke="#000" stroke-width="3" fill-opacity="0"/><path d="M480 547.52c0 10.75-8.95 19.47-20 19.47s-20-8.73-20-19.48 8.95-19.47 20-19.47 20 8.72 20 19.47z" stroke="#000" stroke-width="3" fill="#54dc00"/><path d="M520 431.2h80v155.74h-80z" stroke="#000" stroke-width="3" fill-opacity="0"/><path d="M580 470.13c0 10.75-8.95 19.47-20 19.47s-20-8.72-20-19.47c0-10.76 8.95-19.47 20-19.47s20 8.7 20 19.47z" stroke="#000" stroke-width="3" fill="#c92d39"/><path d="M580 509.06c0 10.76-8.95 19.47-20 19.47s-20-8.7-20-19.47c0-10.75 8.95-19.46 20-19.46s20 8.7 20 19.46zM580 548c0 10.76-8.95 19.47-20 19.47s-20-8.7-20-19.47c0-10.75 8.95-19.47 20-19.47s20 8.72 20 19.47zM700 401.5h220v220H700z" stroke="#000" stroke-width="3" fill-opacity="0"/><use xlink:href="#a" transform="matrix(1,0,0,1,705,406.5) translate(69.425 14.4)"/><use xlink:href="#h" transform="matrix(1,0,0,1,705,406.5) translate(130.575 14.4)"/><use xlink:href="#c" transform="matrix(1,0,0,1,705,406.5) translate(105 36)"/><use xlink:href="#c" transform="matrix(1,0,0,1,705,406.5) translate(105 57.6)"/><use xlink:href="#c" transform="matrix(1,0,0,1,705,406.5) translate(105 79.20000000000002)"/><use xlink:href="#c" transform="matrix(1,0,0,1,705,406.5) translate(105 100.80000000000001)"/><use xlink:href="#c" transform="matrix(1,0,0,1,705,406.5) translate(105 122.4)"/><use xlink:href="#c" transform="matrix(1,0,0,1,705,406.5) translate(105 144)"/><use xlink:href="#c" transform="matrix(1,0,0,1,705,406.5) translate(105 165.6)"/><use xlink:href="#c" transform="matrix(1,0,0,1,705,406.5) translate(105 187.2)"/><use xlink:href="#d" transform="matrix(1,0,0,1,705,406.5) translate(43 208.79999999999998)"/><use xlink:href="#e" transform="matrix(1,0,0,1,705,406.5) translate(145 208.79999999999998)"/><path d="M720 430.7h80v155.76h-80z" stroke="#000" stroke-width="3" fill-opacity="0"/><path d="M780 469.64c0 10.75-8.95 19.47-20 19.47s-20-8.7-20-19.46c0-10.75 8.95-19.47 20-19.47s20 8.72 20 19.47z" stroke="#000" stroke-width="3" fill-opacity="0"/><path d="M780 508.58c0 10.75-8.95 19.47-20 19.47s-20-8.72-20-19.47c0-10.75 8.95-19.47 20-19.47s20 8.73 20 19.48z" stroke="#000" stroke-width="3" fill="#ffdf71"/><path d="M780 547.52c0 10.75-8.95 19.47-20 19.47s-20-8.73-20-19.48 8.95-19.47 20-19.47 20 8.72 20 19.47zM820 431.2h80v155.74h-80z" stroke="#000" stroke-width="3" fill-opacity="0"/><path d="M880 470.13c0 10.75-8.95 19.47-20 19.47s-20-8.72-20-19.47c0-10.76 8.95-19.47 20-19.47s20 8.7 20 19.47z" stroke="#000" stroke-width="3" fill="#c92d39"/><path d="M880 509.06c0 10.76-8.95 19.47-20 19.47s-20-8.7-20-19.47c0-10.75 8.95-19.46 20-19.46s20 8.7 20 19.46zM880 548c0 10.76-8.95 19.47-20 19.47s-20-8.7-20-19.47c0-10.75 8.95-19.47 20-19.47s20 8.72 20 19.47zM1000 401.5h220v217.12h-220z" stroke="#000" stroke-width="3" fill-opacity="0"/><use xlink:href="#a" transform="matrix(1,0,0,1,1005,406.5) translate(69.425 14.4)"/><use xlink:href="#i" transform="matrix(1,0,0,1,1005,406.5) translate(130.575 14.4)"/><use xlink:href="#c" transform="matrix(1,0,0,1,1005,406.5) translate(105 36)"/><use xlink:href="#c" transform="matrix(1,0,0,1,1005,406.5) translate(105 57.6)"/><use xlink:href="#c" transform="matrix(1,0,0,1,1005,406.5) translate(105 79.20000000000002)"/><use xlink:href="#c" transform="matrix(1,0,0,1,1005,406.5) translate(105 100.80000000000001)"/><use xlink:href="#c" transform="matrix(1,0,0,1,1005,406.5) translate(105 122.4)"/><use xlink:href="#c" transform="matrix(1,0,0,1,1005,406.5) translate(105 144)"/><use xlink:href="#c" transform="matrix(1,0,0,1,1005,406.5) translate(105 165.6)"/><use xlink:href="#c" transform="matrix(1,0,0,1,1005,406.5) translate(105 187.2)"/><use xlink:href="#d" transform="matrix(1,0,0,1,1005,406.5) translate(43 208.79999999999998)"/><use xlink:href="#e" transform="matrix(1,0,0,1,1005,406.5) translate(145 208.79999999999998)"/><path d="M1020 430.32h80v153.7h-80z" stroke="#000" stroke-width="3" fill-opacity="0"/><path d="M1080 468.75c0 10.6-8.95 19.2-20 19.2s-20-8.6-20-19.2 8.95-19.22 20-19.22 20 8.6 20 19.22z" stroke="#000" stroke-width="3" fill="#c92d39"/><path d="M1080 507.18c0 10.6-8.95 19.2-20 19.2s-20-8.6-20-19.2 8.95-19.22 20-19.22 20 8.6 20 19.22zM1080 545.6c0 10.62-8.95 19.22-20 19.22s-20-8.6-20-19.22c0-10.6 8.95-19.2 20-19.2s20 8.6 20 19.2zM1120 430.8h80v153.7h-80z" stroke="#000" stroke-width="3" fill-opacity="0"/><path d="M1180 469.23c0 10.6-8.95 19.2-20 19.2s-20-8.6-20-19.2 8.95-19.22 20-19.22 20 8.62 20 19.23zM1180 507.66c0 10.6-8.95 19.2-20 19.2s-20-8.6-20-19.2c0-10.62 8.95-19.22 20-19.22s20 8.6 20 19.22z" stroke="#000" stroke-width="3" fill-opacity="0"/><path d="M1180 546.08c0 10.62-8.95 19.22-20 19.22s-20-8.6-20-19.22c0-10.6 8.95-19.2 20-19.2s20 8.6 20 19.2z" stroke="#000" stroke-width="3" fill="#54dc00"/><path d="M1380 101.5h220v217.12h-220z" stroke="#000" stroke-width="3" fill-opacity="0"/><use xlink:href="#a" transform="matrix(1,0,0,1,1385,106.5) translate(69.425 14.4)"/><use xlink:href="#j" transform="matrix(1,0,0,1,1385,106.5) translate(130.575 14.4)"/><use xlink:href="#c" transform="matrix(1,0,0,1,1385,106.5) translate(105 36)"/><use xlink:href="#c" transform="matrix(1,0,0,1,1385,106.5) translate(105 57.6)"/><use xlink:href="#c" transform="matrix(1,0,0,1,1385,106.5) translate(105 79.20000000000002)"/><use xlink:href="#c" transform="matrix(1,0,0,1,1385,106.5) translate(105 100.80000000000001)"/><use xlink:href="#c" transform="matrix(1,0,0,1,1385,106.5) translate(105 122.4)"/><use xlink:href="#c" transform="matrix(1,0,0,1,1385,106.5) translate(105 144)"/><use xlink:href="#c" transform="matrix(1,0,0,1,1385,106.5) translate(105 165.6)"/><use xlink:href="#c" transform="matrix(1,0,0,1,1385,106.5) translate(105 187.2)"/><use xlink:href="#d" transform="matrix(1,0,0,1,1385,106.5) translate(43 208.79999999999998)"/><use xlink:href="#e" transform="matrix(1,0,0,1,1385,106.5) translate(145 208.79999999999998)"/><path d="M1400 130.32h80v153.7h-80z" stroke="#000" stroke-width="3" fill-opacity="0"/><path d="M1460 168.75c0 10.6-8.95 19.2-20 19.2s-20-8.6-20-19.2 8.95-19.22 20-19.22 20 8.6 20 19.22z" stroke="#000" stroke-width="3" fill="#c92d39"/><path d="M1460 207.18c0 10.6-8.95 19.2-20 19.2s-20-8.6-20-19.2 8.95-19.22 20-19.22 20 8.6 20 19.22zM1460 245.6c0 10.62-8.95 19.22-20 19.22s-20-8.6-20-19.22c0-10.6 8.95-19.2 20-19.2s20 8.6 20 19.2zM1500 130.8h80v153.7h-80z" stroke="#000" stroke-width="3" fill-opacity="0"/><path d="M1560 169.23c0 10.6-8.95 19.2-20 19.2s-20-8.6-20-19.2 8.95-19.22 20-19.22 20 8.62 20 19.23zM1560 207.66c0 10.6-8.95 19.2-20 19.2s-20-8.6-20-19.2c0-10.62 8.95-19.22 20-19.22s20 8.6 20 19.22z" stroke="#000" stroke-width="3" fill-opacity="0"/><path d="M1560 246.08c0 10.62-8.95 19.22-20 19.22s-20-8.6-20-19.22c0-10.6 8.95-19.2 20-19.2s20 8.6 20 19.2z" stroke="#000" stroke-width="3" fill="#54dc00"/><path d="M1380 401.6h220v217.1h-220z" stroke="#000" stroke-width="3" fill-opacity="0"/><use xlink:href="#a" transform="matrix(1,0,0,1,1385,406.5873362445416) translate(69.425 14.4)"/><use xlink:href="#k" transform="matrix(1,0,0,1,1385,406.5873362445416) translate(130.575 14.4)"/><use xlink:href="#c" transform="matrix(1,0,0,1,1385,406.5873362445416) translate(105 36)"/><use xlink:href="#c" transform="matrix(1,0,0,1,1385,406.5873362445416) translate(105 57.6)"/><use xlink:href="#c" transform="matrix(1,0,0,1,1385,406.5873362445416) translate(105 79.20000000000002)"/><use xlink:href="#c" transform="matrix(1,0,0,1,1385,406.5873362445416) translate(105 100.80000000000001)"/><use xlink:href="#c" transform="matrix(1,0,0,1,1385,406.5873362445416) translate(105 122.4)"/><use xlink:href="#c" transform="matrix(1,0,0,1,1385,406.5873362445416) translate(105 144)"/><use xlink:href="#c" transform="matrix(1,0,0,1,1385,406.5873362445416) translate(105 165.6)"/><use xlink:href="#c" transform="matrix(1,0,0,1,1385,406.5873362445416) translate(105 187.2)"/><use xlink:href="#d" transform="matrix(1,0,0,1,1385,406.5873362445416) translate(43 208.79999999999998)"/><use xlink:href="#e" transform="matrix(1,0,0,1,1385,406.5873362445416) translate(145 208.79999999999998)"/><path d="M1400 430.4h80v153.72h-80z" stroke="#000" stroke-width="3" fill-opacity="0"/><path d="M1460 468.84c0 10.6-8.95 19.2-20 19.2s-20-8.6-20-19.2c0-10.62 8.95-19.22 20-19.22s20 8.6 20 19.22z" stroke="#000" stroke-width="3" fill="#c92d39"/><path d="M1460 507.26c0 10.62-8.95 19.22-20 19.22s-20-8.6-20-19.22c0-10.6 8.95-19.2 20-19.2s20 8.6 20 19.2zM1460 545.7c0 10.6-8.95 19.2-20 19.2s-20-8.6-20-19.2c0-10.62 8.95-19.22 20-19.22s20 8.6 20 19.2zM1500 430.9h80v153.7h-80z" stroke="#000" stroke-width="3" fill-opacity="0"/><path d="M1560 469.32c0 10.6-8.95 19.2-20 19.2s-20-8.6-20-19.2c0-10.62 8.95-19.22 20-19.22s20 8.6 20 19.22zM1560 507.74c0 10.6-8.95 19.22-20 19.22s-20-8.6-20-19.22c0-10.6 8.95-19.2 20-19.2s20 8.6 20 19.2z" stroke="#000" stroke-width="3" fill-opacity="0"/><path d="M1560 546.17c0 10.6-8.95 19.22-20 19.22s-20-8.62-20-19.23c0-10.6 8.95-19.2 20-19.2s20 8.6 20 19.2z" stroke="#000" stroke-width="3" fill="#54dc00"/><path d="M1680 401.6h220v217.1h-220z" stroke="#000" stroke-width="3" fill-opacity="0"/><g><use xlink:href="#a" transform="matrix(1,0,0,1,1685,406.5873362445416) translate(69.425 14.4)"/><use xlink:href="#l" transform="matrix(1,0,0,1,1685,406.5873362445416) translate(130.575 14.4)"/><use xlink:href="#c" transform="matrix(1,0,0,1,1685,406.5873362445416) translate(105 36)"/><use xlink:href="#c" transform="matrix(1,0,0,1,1685,406.5873362445416) translate(105 57.6)"/><use xlink:href="#c" transform="matrix(1,0,0,1,1685,406.5873362445416) translate(105 79.20000000000002)"/><use xlink:href="#c" transform="matrix(1,0,0,1,1685,406.5873362445416) translate(105 100.80000000000001)"/><use xlink:href="#c" transform="matrix(1,0,0,1,1685,406.5873362445416) translate(105 122.4)"/><use xlink:href="#c" transform="matrix(1,0,0,1,1685,406.5873362445416) translate(105 144)"/><use xlink:href="#c" transform="matrix(1,0,0,1,1685,406.5873362445416) translate(105 165.6)"/><use xlink:href="#c" transform="matrix(1,0,0,1,1685,406.5873362445416) translate(105 187.2)"/><use xlink:href="#d" transform="matrix(1,0,0,1,1685,406.5873362445416) translate(43 208.79999999999998)"/><use xlink:href="#e" transform="matrix(1,0,0,1,1685,406.5873362445416) translate(145 208.79999999999998)"/></g><path d="M1700 430.4h80v153.72h-80z" stroke="#000" stroke-width="3" fill-opacity="0"/><path d="M1760 468.84c0 10.6-8.95 19.2-20 19.2s-20-8.6-20-19.2c0-10.62 8.95-19.22 20-19.22s20 8.6 20 19.22z" stroke="#000" stroke-width="3" fill="#c92d39"/><path d="M1760 507.26c0 10.62-8.95 19.22-20 19.22s-20-8.6-20-19.22c0-10.6 8.95-19.2 20-19.2s20 8.6 20 19.2zM1760 545.7c0 10.6-8.95 19.2-20 19.2s-20-8.6-20-19.2c0-10.62 8.95-19.22 20-19.22s20 8.6 20 19.2zM1800 430.9h80v153.7h-80z" stroke="#000" stroke-width="3" fill-opacity="0"/><path d="M1860 469.32c0 10.6-8.95 19.2-20 19.2s-20-8.6-20-19.2c0-10.62 8.95-19.22 20-19.22s20 8.6 20 19.22z" stroke="#000" stroke-width="3" fill-opacity="0"/><path d="M1860 507.74c0 10.6-8.95 19.22-20 19.22s-20-8.6-20-19.22c0-10.6 8.95-19.2 20-19.2s20 8.6 20 19.2z" stroke="#000" stroke-width="3" fill="#ffdf71"/><path d="M1860 546.17c0 10.6-8.95 19.22-20 19.22s-20-8.62-20-19.23c0-10.6 8.95-19.2 20-19.2s20 8.6 20 19.2z" stroke="#000" stroke-width="3" fill-opacity="0"/><path d="M243 211.5h134.88" stroke="#000" stroke-width="3" fill="none"/><path d="M243.04 213h-1.54v-3h1.54z"/><path d="M393.65 211.5l-14.27 4.64v-9.28z" stroke="#000" stroke-width="3"/><g><use xlink:href="#m" transform="matrix(1,0,0,1,250.5185185185185,175.5) translate(0 21.333333333333336)"/><use xlink:href="#n" transform="matrix(1,0,0,1,250.5185185185185,175.5) translate(38.44444444444445 21.333333333333336)"/><use xlink:href="#o" transform="matrix(1,0,0,1,250.5185185185185,175.5) translate(76.8888888888889 21.333333333333336)"/><use xlink:href="#p" transform="matrix(1,0,0,1,250.5185185185185,175.5) translate(115.33333333333334 21.333333333333336)"/></g><path d="M180.23 324.5V363H79.77v-19.38" stroke="#000" stroke-width="3" fill="none"/><path d="M181.73 324.54h-3V323h3z"/><path d="M79.77 327.85l4.64 14.27h-9.26z" stroke="#000" stroke-width="3"/><g><use xlink:href="#q" transform="matrix(1,0,0,1,98.96296296296296,367) translate(0 21.333333333333336)"/><use xlink:href="#r" transform="matrix(1,0,0,1,98.96296296296296,367) translate(38.44444444444445 21.333333333333336)"/></g><path d="M321.5 510h56.38v3H318.5V377.5h3zm0-164.5h-3V213H243v-3h78.5z"/><path d="M243.04 213h-1.54v-3h1.54zM393.65 511.5l-14.27 4.64v-9.28z"/><path d="M398.5 511.5l-20.62 6.7v-13.4zm-17.62 2.57l7.9-2.57-7.9-2.57z"/><g><use xlink:href="#m" transform="matrix(1,0,0,1,288.96296296296293,345.5) translate(0 21.333333333333336)"/><use xlink:href="#s" transform="matrix(1,0,0,1,288.96296296296293,345.5) translate(38.44444444444445 21.333333333333336)"/></g><path d="M510 324.5v54.88" stroke="#000" stroke-width="3" fill="none"/><path d="M511.5 324.54h-3V323h3z"/><path d="M510 395.15l-4.64-14.27h9.28z" stroke="#000" stroke-width="3"/><path d="M623 511.5h54.88" stroke="#000" stroke-width="3" fill="none"/><path d="M623.04 513h-1.54v-3h1.54z"/><path d="M693.65 511.5l-14.27 4.64v-9.28z" stroke="#000" stroke-width="3"/><path d="M1301.5 511.56H1223v-3h75.5v-132.5h3zm56.38-300h-56.38v132.5h-3v-135.5h59.38z"/><path d="M1223.04 511.56h-1.54v-3h1.54zM1373.65 210.06l-14.27 4.63v-9.28z"/><path d="M1378.5 210.06l-20.62 6.7v-13.4zm-17.62 2.57l7.9-2.57-7.9-2.57z"/><g><use xlink:href="#m" transform="matrix(1,0,0,1,1268.962962962963,344.0589519650655) translate(0 21.333333333333336)"/><use xlink:href="#r" transform="matrix(1,0,0,1,1268.962962962963,344.0589519650655) translate(38.44444444444445 21.333333333333336)"/></g><path d="M1163.24 621.62v38.5h-104.47v-19.38" stroke="#000" stroke-width="3" fill="none"/><path d="M1164.74 621.66h-3v-1.54h3z"/><path d="M1058.77 624.97l4.63 14.27h-9.27z" stroke="#000" stroke-width="3"/><g><use xlink:href="#m" transform="matrix(1,0,0,1,1079.9675267159992,664.117904) translate(0 21.333333333333336)"/><use xlink:href="#s" transform="matrix(1,0,0,1,1079.9675267159992,664.117904) translate(38.44444444444445 21.333333333333336)"/></g><path d="M1490 321.62v57.85" stroke="#000" stroke-width="3" fill="none"/><path d="M1491.5 321.66h-3v-1.54h3z"/><path d="M1490 395.23l-4.64-14.26h9.28z" stroke="#000" stroke-width="3"/><path d="M1166.26 398.5V360h-106.5v19.38" stroke="#000" stroke-width="3" fill="none"/><path d="M1167.76 400h-3v-1.54h3z"/><path d="M1059.77 395.15l-4.63-14.27h9.27z" stroke="#000" stroke-width="3"/><g><use xlink:href="#q" transform="matrix(1,0,0,1,1081.9766542220807,324) translate(0 21.333333333333336)"/><use xlink:href="#s" transform="matrix(1,0,0,1,1081.9766542220807,324) translate(38.44444444444445 21.333333333333336)"/></g><path d="M923 511.5H977.88" stroke="#000" stroke-width="3" fill="none"/><path d="M923.04 513h-1.54v-3h1.54z"/><path d="M993.65 511.5l-14.27 4.64v-9.27z" stroke="#000" stroke-width="3"/><path d="M1223 510.06h134.88" stroke="#000" stroke-width="3" fill="none"/><path d="M1223.04 511.56h-1.54v-3h1.54z"/><path d="M1373.65 510.06l-14.27 4.63v-9.28z" stroke="#000" stroke-width="3"/><g><use xlink:href="#q" transform="matrix(1,0,0,1,1268.9629831551981,514.0589476799565) translate(0 21.333333333333336)"/><use xlink:href="#r" transform="matrix(1,0,0,1,1268.9629831551981,514.0589476799565) translate(38.44444444444445 21.333333333333336)"/></g><path d="M1603 510.15h54.88" stroke="#000" stroke-width="3" fill="none"/><path d="M1603.04 511.65h-1.54v-3h1.54z"/><path d="M1673.65 510.15l-14.27 4.63v-9.27z" stroke="#000" stroke-width="3"/><path d="M1791.5 398.6h-3V61.5h-1657v17.88h-3V58.5h1663z"/><path d="M1791.5 400.1h-3v-1.55h3zM130 95.15l-4.64-14.27h9.28z"/><path d="M130 100l-6.7-20.62h13.4zm-2.57-17.62l2.57 7.9 2.57-7.9z"/><defs><path d="M169-182c-1-43-94-46-97-3 18 66 151 10 154 114 3 95-165 93-204 36-6-8-10-19-12-30l50-8c3 46 112 56 116 5-17-69-150-10-154-114-4-87 153-88 188-35 5 8 8 18 10 28" id="t"/><path d="M136-208V0H84v-208H4v-40h212v40h-80" id="u"/><path d="M199 0l-22-63H83L61 0H9l90-248h61L250 0h-51zm-33-102l-36-108c-10 38-24 72-36 108h72" id="v"/><path d="M24 0v-248h195v40H76v63h132v40H76v65h150V0H24" id="w"/><g id="a"><use transform="matrix(0.05,0,0,0.05,0,0)" xlink:href="#t"/><use transform="matrix(0.05,0,0,0.05,12,0)" xlink:href="#u"/><use transform="matrix(0.05,0,0,0.05,21.6,0)" xlink:href="#v"/><use transform="matrix(0.05,0,0,0.05,33.2,0)" xlink:href="#u"/><use transform="matrix(0.05,0,0,0.05,44.150000000000006,0)" xlink:href="#w"/></g><path d="M101-251c68 0 84 54 84 127C185-50 166 4 99 4S15-52 14-124c-1-75 17-127 87-127zm-1 216c37-5 36-46 36-89s4-89-36-89c-39 0-36 45-36 89 0 43-3 85 36 89" id="x"/><use transform="matrix(0.05,0,0,0.05,0,0)" xlink:href="#x" id="b"/><path d="M23 0v-37h61v-169l-59 37v-38l62-41h46v211h57V0H23" id="y"/><g id="d"><use transform="matrix(0.05,0,0,0.05,0,0)" xlink:href="#t"/><use transform="matrix(0.05,0,0,0.05,12,0)" xlink:href="#y"/></g><path d="M182-182c0 78-84 86-111 141h115V0H12c-6-101 99-100 120-180 1-22-12-31-33-32-23 0-32 14-35 34l-49-3c5-45 32-70 84-70 51 0 83 22 83 69" id="z"/><g id="e"><use transform="matrix(0.05,0,0,0.05,0,0)" xlink:href="#t"/><use transform="matrix(0.05,0,0,0.05,12,0)" xlink:href="#z"/></g><use transform="matrix(0.05,0,0,0.05,0,0)" xlink:href="#y" id="f"/><use transform="matrix(0.05,0,0,0.05,0,0)" xlink:href="#z" id="g"/><path d="M128-127c34 4 56 21 59 58 7 91-148 94-172 28-4-9-6-17-7-26l51-5c1 24 16 35 40 36 23 0 39-12 38-36-1-31-31-36-65-34v-40c32 2 59-3 59-33 0-20-13-33-34-33s-33 13-35 32l-50-3c6-44 37-68 86-68 50 0 83 20 83 66 0 35-22 52-53 58" id="A"/><use transform="matrix(0.05,0,0,0.05,0,0)" xlink:href="#A" id="h"/><path d="M165-50V0h-47v-50H5v-38l105-160h55v161h33v37h-33zm-47-37l2-116L46-87h72" id="B"/><use transform="matrix(0.05,0,0,0.05,0,0)" xlink:href="#B" id="i"/><path d="M139-81c0-46-55-55-73-27H18l9-140h149v37H72l-4 63c44-38 133-4 122 66C201 21 21 35 11-62l49-4c5 18 15 30 39 30 26 0 40-18 40-45" id="C"/><use transform="matrix(0.05,0,0,0.05,0,0)" xlink:href="#C" id="j"/><path d="M115-159c48 0 72 30 72 78 0 54-30 85-83 85-64 0-91-50-91-122 0-98 58-163 141-120 15 8 21 24 27 44l-47 6c-5-31-48-31-61-4-7 14-11 33-11 60 9-17 28-27 53-27zM102-35c24 0 36-20 36-45s-11-43-37-43c-23 0-36 14-36 38 0 27 11 50 37 50" id="D"/><use transform="matrix(0.05,0,0,0.05,0,0)" xlink:href="#D" id="k"/><path d="M52 0c1-96 47-148 87-207H15v-41h169v40c-36 62-79 113-81 208H52" id="E"/><use transform="matrix(0.05,0,0,0.05,0,0)" xlink:href="#E" id="l"/><path d="M67-93c0 74 22 123 53 168H70C40 30 18-18 18-93s22-123 52-168h50c-32 44-53 94-53 168" id="F"/><path d="M76-54c-1 42 2 86-19 110H24C36 42 46 24 48 0H25v-54h51" id="G"/><g id="m"><use transform="matrix(0.07407407407407408,0,0,0.07407407407407408,0,0)" xlink:href="#F"/><use transform="matrix(0.07407407407407408,0,0,0.07407407407407408,8.814814814814817,0)" xlink:href="#x"/><use transform="matrix(0.07407407407407408,0,0,0.07407407407407408,23.629629629629633,0)" xlink:href="#G"/></g><path d="M102-93c0 74-22 123-52 168H0C30 29 54-18 53-93c0-74-22-123-53-168h50c30 45 52 94 52 168" id="H"/><g id="n"><use transform="matrix(0.07407407407407408,0,0,0.07407407407407408,0,0)" xlink:href="#x"/><use transform="matrix(0.07407407407407408,0,0,0.07407407407407408,14.814814814814817,0)" xlink:href="#H"/><use transform="matrix(0.07407407407407408,0,0,0.07407407407407408,23.629629629629633,0)" xlink:href="#G"/></g><g id="o"><use transform="matrix(0.07407407407407408,0,0,0.07407407407407408,0,0)" xlink:href="#F"/><use transform="matrix(0.07407407407407408,0,0,0.07407407407407408,8.814814814814817,0)" xlink:href="#y"/><use transform="matrix(0.07407407407407408,0,0,0.07407407407407408,23.629629629629633,0)" xlink:href="#G"/></g><g id="p"><use transform="matrix(0.07407407407407408,0,0,0.07407407407407408,0,0)" xlink:href="#y"/><use transform="matrix(0.07407407407407408,0,0,0.07407407407407408,14.814814814814817,0)" xlink:href="#H"/></g><g id="q"><use transform="matrix(0.07407407407407408,0,0,0.07407407407407408,0,0)" xlink:href="#F"/><use transform="matrix(0.07407407407407408,0,0,0.07407407407407408,8.814814814814817,0)" xlink:href="#y"/><use transform="matrix(0.07407407407407408,0,0,0.07407407407407408,23.629629629629633,0)" xlink:href="#G"/></g><g id="r"><use transform="matrix(0.07407407407407408,0,0,0.07407407407407408,0,0)" xlink:href="#x"/><use transform="matrix(0.07407407407407408,0,0,0.07407407407407408,14.814814814814817,0)" xlink:href="#H"/></g><g id="s"><use transform="matrix(0.07407407407407408,0,0,0.07407407407407408,0,0)" xlink:href="#y"/><use transform="matrix(0.07407407407407408,0,0,0.07407407407407408,14.814814814814817,0)" xlink:href="#H"/></g></defs></g></svg>